<svg data-v-423bf9ae="" xmlns="http://www.w3.org/2000/svg" viewBox="0 0 557 90" class="iconLeft"><!----><!----><!----><g data-v-423bf9ae="" id="57aa49b8-ef31-4cda-8218-d029d0e72879" fill="white" transform="matrix(5.7747832548013,0,0,5.7747832548013,126.21400075252035,12.921077826453306)"><path d="M9.11 1.92C8.11 0.92 6.79 0.42 5.47 0.42C2.02 0.42 0.29 2.97 0.29 5.73C0.29 8.30 1.79 10.72 5.47 10.72C7.20 10.72 8.41 10.07 9.38 8.96L9.38 4.83L5.18 4.83L5.18 6.48L7.69 6.48L7.69 8.22C6.92 8.83 6.24 9.00 5.47 9.00C3.04 9.00 2.10 7.34 2.10 5.73C2.10 3.71 3.37 2.11 5.47 2.11C6.33 2.11 7.31 2.46 7.97 3.09ZM16.18 4.55C15.79 3.86 14.91 3.43 13.99 3.43C11.97 3.42 10.39 4.66 10.39 7.04C10.39 9.46 11.90 10.72 13.94 10.71C14.71 10.70 15.79 10.30 16.18 9.49L16.27 10.50L17.88 10.50L17.88 3.60L16.24 3.60ZM14.14 4.96C16.83 4.96 16.83 9.14 14.14 9.14C13.01 9.14 12.10 8.36 12.10 7.04C12.10 5.73 13.01 4.96 14.14 4.96ZM25.62 10.50L25.62 6.80C25.62 5.89 26.19 5.10 27.12 5.10C28.04 5.10 28.42 5.87 28.42 6.78L28.42 10.50L30.13 10.50L30.13 6.78C30.13 4.70 29.16 3.50 27.20 3.50C26.31 3.50 25.51 3.78 24.89 4.76C24.50 3.81 23.67 3.47 22.85 3.47C22.19 3.47 21.39 3.72 21.03 4.42L20.90 3.58L19.32 3.58L19.32 10.50L21.03 10.50L21.03 6.80C21.03 5.89 21.57 5.07 22.50 5.07C23.44 5.07 23.91 5.89 23.91 6.80L23.91 10.50ZM38.71 7.66C38.98 4.82 37.53 3.39 35.22 3.39C32.98 3.39 31.56 4.90 31.56 7C31.56 9.21 32.97 10.68 35.35 10.68C36.40 10.68 37.59 10.32 38.32 9.56L37.23 8.48C36.83 8.89 36.01 9.13 35.38 9.13C34.17 9.13 33.43 8.51 33.32 7.66ZM33.35 6.24C33.60 5.35 34.36 4.90 35.28 4.90C36.26 4.90 36.96 5.35 37.07 6.24ZM47.67 2.31C46.93 0.80 45.35 0.36 43.82 0.36C42.01 0.38 40.03 1.20 40.03 3.22C40.03 5.42 41.87 5.95 43.88 6.19C45.18 6.33 46.14 6.71 46.14 7.63C46.14 8.69 45.05 9.10 43.89 9.10C42.70 9.10 41.57 8.62 41.13 7.55L39.59 8.34C40.32 10.14 41.86 10.75 43.86 10.75C46.05 10.75 47.98 9.81 47.98 7.63C47.98 5.29 46.07 4.76 44.03 4.51C42.85 4.37 41.85 4.13 41.85 3.28C41.85 2.55 42.50 1.97 43.88 1.97C44.94 1.97 45.86 2.51 46.20 3.07ZM49.98 1.83L49.98 3.61L48.69 3.61L48.69 5.08L49.98 5.08L49.98 8.06C49.98 9.79 50.96 10.64 52.46 10.58C52.98 10.57 53.38 10.49 53.87 10.29L53.40 8.83C53.14 8.96 52.84 9.04 52.57 9.04C52.04 9.04 51.67 8.72 51.67 8.06L51.67 5.08L53.59 5.08L53.59 3.61L51.69 3.61L51.69 1.65ZM60.28 4.55C59.89 3.86 59.01 3.43 58.09 3.43C56.07 3.42 54.49 4.66 54.49 7.04C54.49 9.46 56 10.72 58.04 10.71C58.81 10.70 59.89 10.30 60.28 9.49L60.37 10.50L61.98 10.50L61.98 3.60L60.34 3.60ZM58.24 4.96C60.93 4.96 60.93 9.14 58.24 9.14C57.11 9.14 56.20 8.36 56.20 7.04C56.20 5.73 57.11 4.96 58.24 4.96ZM63.42 3.60L63.42 10.50L65.13 10.50L65.13 6.86C65.13 5.59 65.95 5.11 66.85 5.11C67.41 5.11 67.73 5.26 68.08 5.56L68.85 4.07C68.47 3.70 67.79 3.42 67.07 3.42C66.37 3.42 65.66 3.54 65.13 4.40L65.00 3.60ZM70.63 1.83L70.63 3.61L69.34 3.61L69.34 5.08L70.63 5.08L70.63 8.06C70.63 9.79 71.61 10.64 73.11 10.58C73.63 10.57 74.03 10.49 74.52 10.29L74.05 8.83C73.79 8.96 73.49 9.04 73.22 9.04C72.69 9.04 72.32 8.72 72.32 8.06L72.32 5.08L74.24 5.08L74.24 3.61L72.34 3.61L72.34 1.65Z"></path></g><!----><g data-v-423bf9ae="" id="97f30624-4db5-42ae-95d2-96c61c0b60e2" transform="matrix(1.1110288578850736,0,0,1.1110288578850736,-1.1105468655273185,-8.888230863080587)" stroke="none" fill="white"><path d="M9.598 89.006h89.006V16.101H58.201v8.1h32.302v56.704H17.698V56.604h-8.1z"></path><path d="M1.497 48.503h8.101v-8.101h8.101v8.101H25.8v-8.101h8.101v8.101H42v-8.101h8.101v8.101h8.101V32.302h-8.101V16.101H42V8h-8.101v8.101h-8.101V8h-8.101v8.101H9.598v16.201H1.497v16.201zm16.201-16.201v-8.101h8.101v8.101h-8.101zm16.201 0v-8.101H42v8.101h-8.101z"></path></g><!----></svg>